<svg width="49" height="48" viewBox="0 0 49 48" fill="none" xmlns="http://www.w3.org/2000/svg">
<path d="M14.2199 16.9544C14.2199 15.7016 15.0355 14.8853 16.2766 14.6955V19.2893C15.0532 18.8527 14.2199 18.2832 14.2199 16.9544ZM19.2376 23.5983C19.2376 24.8322 18.4574 25.6864 17.234 25.9142V21.2445C18.3688 21.7 19.2376 22.3265 19.2376 23.5983ZM17.234 28.6666V27.2619C19.1844 26.9962 20.8333 25.7053 20.8333 23.4654C20.8333 21.3204 19.4681 20.3713 17.234 19.612V14.6765C18.3688 14.7904 19.4858 15.3789 20.5496 16.385V14.5057C19.6808 13.8413 18.5638 13.3857 17.234 13.3098V12H16.2766V13.3478C14.2376 13.5755 12.6418 14.8664 12.6418 16.9924C12.6418 19.2133 13.9539 20.2004 16.2766 20.9218V25.9901C15.1064 25.9142 13.8475 25.3257 12.5 24.0918V26.066C13.5284 26.7684 14.805 27.2809 16.2766 27.3189V28.6666H17.234Z" fill="#368727"/>
<path d="M36.5266 25.7779C36.5266 20.639 34.8322 15.5557 29.9989 15.5557C25.11 15.5557 23.4434 20.639 23.4434 25.7779C23.4434 30.9445 25.11 36 29.9989 36C34.8322 36 36.5266 30.9445 36.5266 25.7779ZM34.0544 25.7779C34.0544 28.8334 33.5544 33.9445 29.9989 33.9445C26.4156 33.9445 25.9156 28.8334 25.9156 25.7779C25.9156 22.7501 26.4156 17.6112 29.9989 17.6112C33.5544 17.6112 34.0544 22.7501 34.0544 25.7779Z" fill="#4C4C4C"/>
<circle opacity="0.2" cx="24.5" cy="24" r="24" fill="#368727"/>
</svg>
